<svg width="277" height="277" viewBox="0 0 277 277" fill="none" xmlns="http://www.w3.org/2000/svg">
<path d="M23.0833 138.5C23.0833 84.092 23.0833 56.8881 39.9857 39.9858C56.888 23.0834 84.092 23.0834 138.5 23.0834C192.907 23.0834 220.112 23.0834 237.014 39.9858C253.917 56.8881 253.917 84.092 253.917 138.5C253.917 192.907 253.917 220.112 237.014 237.014C220.112 253.917 192.907 253.917 138.5 253.917C84.092 253.917 56.888 253.917 39.9857 237.014C23.0833 220.112 23.0833 192.907 23.0833 138.5Z" fill="white"/>
<path d="M155.675 74.3965C160.293 75.6337 163.033 80.3804 161.796 84.9982L131.923 196.482C130.686 201.1 125.939 203.841 121.321 202.604C116.704 201.365 113.964 196.619 115.201 192.001L145.073 80.5174C146.31 75.8996 151.057 73.1591 155.675 74.3965Z" fill="#1C274C"/>
<path d="M172.775 97.7541C176.156 94.3736 181.636 94.3736 185.016 97.7541L187.422 100.159C194.754 107.491 200.869 113.606 205.07 119.112C209.505 124.925 212.616 131.066 212.616 138.5C212.616 145.934 209.505 152.075 205.07 157.888C200.869 163.394 194.754 169.509 187.422 176.841L185.016 179.246C181.636 182.626 176.156 182.626 172.775 179.246C169.395 175.865 169.395 170.385 172.775 167.004L174.755 165.024C182.623 157.156 187.895 151.858 191.307 147.386C194.566 143.114 195.303 140.627 195.303 138.5C195.303 136.373 194.566 133.886 191.307 129.614C187.895 125.142 182.623 119.844 174.755 111.976L172.775 109.996C169.395 106.615 169.395 101.135 172.775 97.7541Z" fill="#1C274C"/>
<path d="M91.9854 97.7541C95.3659 94.3736 100.847 94.3736 104.227 97.7541C107.608 101.135 107.608 106.615 104.227 109.996L102.247 111.976C94.3795 119.844 89.1076 125.142 85.6954 129.614C82.4357 133.886 81.6989 136.373 81.6989 138.5C81.6989 140.627 82.4357 143.114 85.6954 147.386C89.1076 151.858 94.3795 157.156 102.247 165.024L104.227 167.004C107.608 170.385 107.608 175.865 104.227 179.246C100.847 182.626 95.3659 182.626 91.9854 179.246L89.5807 176.841C82.2478 169.509 76.1332 163.394 71.9317 157.888C67.4969 152.075 64.3864 145.934 64.3864 138.5C64.3864 131.066 67.4969 124.925 71.9317 119.112C76.1332 113.606 82.2478 107.491 89.5807 100.159L91.9854 97.7541Z" fill="#1C274C"/>
</svg>
